<svg version="1.1" id="Layer_1" xmlns="http://www.w3.org/2000/svg" xmlns:xlink="http://www.w3.org/1999/xlink" x="0px" y="0px"
	 width="100%" viewBox="0 0 208 124" enable-background="new 0 0 208 124" xml:space="preserve">
<path fill="#000000" opacity="1.000000" stroke="none" 
	d="
M119.000000,125.000000 
	C79.333344,125.000000 40.166691,125.000000 1.000026,125.000000 
	C1.000018,83.666687 1.000018,42.333382 1.000009,1.000054 
	C70.333290,1.000036 139.666580,1.000036 208.999908,1.000018 
	C208.999939,42.333279 208.999939,83.666557 208.999969,124.999916 
	C179.166672,125.000000 149.333328,125.000000 119.000000,125.000000 
M144.999619,84.142448 
	C144.999619,75.875633 144.999619,67.608826 144.999619,59.404633 
	C137.610184,59.404633 130.891281,59.404633 124.301941,59.404633 
	C124.301941,63.086685 124.301941,66.355904 124.301941,70.176208 
	C127.324570,70.176208 130.049820,70.176208 132.989380,70.176208 
	C132.989380,72.727501 133.200958,74.746552 132.908188,76.689621 
	C132.738907,77.813080 132.002991,79.400398 131.101929,79.779045 
	C122.526993,83.382317 109.637604,74.542381 108.952477,65.017509 
	C108.062813,52.649162 119.258003,44.412075 131.915070,47.497681 
	C136.246826,48.553696 140.400833,50.338779 144.841370,51.861160 
	C144.841370,47.187443 144.841370,42.882618 144.841370,38.489250 
	C135.773697,35.301289 126.699142,33.537086 117.286407,36.064484 
	C106.658104,38.918278 99.052231,45.556236 96.228752,56.124523 
	C93.362137,66.854256 96.586693,76.523552 104.766602,84.236664 
	C113.350342,92.330544 133.247162,94.712143 143.266129,88.777466 
	C144.237076,88.202324 144.438965,86.328850 144.999619,84.142448 
M82.049057,48.061375 
	C85.225296,49.572769 88.401543,51.084164 91.995148,52.794159 
	C91.995148,48.576229 92.213470,45.065201 91.880684,41.607212 
	C91.758736,40.339947 90.589088,38.555920 89.457825,38.101219 
	C80.527679,34.511856 71.443512,33.550896 62.155994,37.022816 
	C41.672382,44.680130 38.939049,69.735275 51.535870,82.190979 
	C62.570431,93.101929 75.739563,94.041336 89.040817,88.364983 
	C90.279869,87.836220 91.738922,86.202347 91.855492,84.964760 
	C92.219803,81.096855 91.989243,77.172928 91.989243,73.340614 
	C87.391418,75.494316 83.457237,77.796463 79.228050,79.225548 
	C69.487183,82.517105 56.505093,74.863258 57.275002,62.710384 
	C58.090317,49.840721 69.017715,44.362293 82.049057,48.061375 
M159.496567,35.999592 
	C157.416290,35.999592 155.336014,35.999592 153.407074,35.999592 
	C153.407074,54.775959 153.407074,72.790573 153.407074,90.700302 
	C157.741135,90.700302 161.665878,90.700302 165.672470,90.700302 
	C165.672470,72.385773 165.672470,54.372326 165.672470,35.999634 
	C163.713074,35.999634 162.078918,35.999634 159.496567,35.999592 
z"/>
<path fill="#E11937" opacity="1.000000" stroke="none" 
	d="
M144.998734,84.600258 
	C144.438965,86.328850 144.237076,88.202324 143.266129,88.777466 
	C133.247162,94.712143 113.350342,92.330544 104.766602,84.236664 
	C96.586693,76.523552 93.362137,66.854256 96.228752,56.124523 
	C99.052231,45.556236 106.658104,38.918278 117.286407,36.064484 
	C126.699142,33.537086 135.773697,35.301289 144.841370,38.489250 
	C144.841370,42.882618 144.841370,47.187443 144.841370,51.861160 
	C140.400833,50.338779 136.246826,48.553696 131.915070,47.497681 
	C119.258003,44.412075 108.062813,52.649162 108.952477,65.017509 
	C109.637604,74.542381 122.526993,83.382317 131.101929,79.779045 
	C132.002991,79.400398 132.738907,77.813080 132.908188,76.689621 
	C133.200958,74.746552 132.989380,72.727501 132.989380,70.176208 
	C130.049820,70.176208 127.324570,70.176208 124.301941,70.176208 
	C124.301941,66.355904 124.301941,63.086685 124.301941,59.404633 
	C130.891281,59.404633 137.610184,59.404633 144.999619,59.404633 
	C144.999619,67.608826 144.999619,75.875633 144.998734,84.600258 
z"/>
<path fill="#E11937" opacity="1.000000" stroke="none" 
	d="
M81.636314,48.018997 
	C69.017715,44.362293 58.090317,49.840721 57.275002,62.710384 
	C56.505093,74.863258 69.487183,82.517105 79.228050,79.225548 
	C83.457237,77.796463 87.391418,75.494316 91.989243,73.340614 
	C91.989243,77.172928 92.219803,81.096855 91.855492,84.964760 
	C91.738922,86.202347 90.279869,87.836220 89.040817,88.364983 
	C75.739563,94.041336 62.570431,93.101929 51.535870,82.190979 
	C38.939049,69.735275 41.672382,44.680130 62.155994,37.022816 
	C71.443512,33.550896 80.527679,34.511856 89.457825,38.101219 
	C90.589088,38.555920 91.758736,40.339947 91.880684,41.607212 
	C92.213470,45.065201 91.995148,48.576229 91.995148,52.794159 
	C88.401543,51.084164 85.225296,49.572769 81.636314,48.018997 
z"/>
<path fill="#E11937" opacity="1.000000" stroke="none" 
	d="
M159.970673,35.999611 
	C162.078918,35.999634 163.713074,35.999634 165.672470,35.999634 
	C165.672470,54.372326 165.672470,72.385773 165.672470,90.700302 
	C161.665878,90.700302 157.741135,90.700302 153.407074,90.700302 
	C153.407074,72.790573 153.407074,54.775959 153.407074,35.999592 
	C155.336014,35.999592 157.416290,35.999592 159.970673,35.999611 
z"/>
</svg>