<svg version="1.1" id="Layer_1" xmlns="http://www.w3.org/2000/svg" xmlns:xlink="http://www.w3.org/1999/xlink" x="0px" y="0px"
	 width="100%" viewBox="0 0 208 124" enable-background="new 0 0 208 124" xml:space="preserve">
<path fill="#FFFFFF" opacity="1.000000" stroke="none" 
	d="
M160.000000,125.000000 
	C106.666672,125.000000 53.833347,125.000000 1.000014,125.000000 
	C1.000010,83.666679 1.000010,42.333355 1.000005,1.000025 
	C70.333313,1.000017 139.666626,1.000017 208.999954,1.000008 
	C208.999969,42.333309 208.999969,83.666618 208.999985,124.999962 
	C192.833328,125.000000 176.666672,125.000000 160.000000,125.000000 
M165.613739,35.152042 
	C155.078400,35.156078 144.543060,35.160110 133.086899,35.021164 
	C128.722275,35.068905 124.357651,35.116650 119.064606,35.011753 
	C106.378113,35.062881 93.691620,35.114010 80.087402,35.020889 
	C75.722656,35.068737 71.357910,35.116585 66.064766,35.011761 
	C58.725021,35.011761 51.385281,35.011761 44.164215,35.011761 
	C44.164215,42.814724 44.164215,49.903603 44.021301,57.905525 
	C44.069000,61.605995 44.116703,65.306465 44.011757,69.935326 
	C44.011757,77.156441 44.011757,84.377556 44.011757,91.835838 
	C52.585030,91.835838 60.788677,91.835838 69.886482,91.978592 
	C72.592880,91.930733 75.299278,91.882881 78.931137,91.988335 
	C92.951500,91.937515 106.971855,91.886696 121.892677,91.978592 
	C124.930824,91.930946 127.968979,91.883308 131.935547,91.988251 
	C141.810638,91.992165 151.686035,92.036003 161.560440,91.955544 
	C162.987549,91.943924 164.409821,91.335518 165.979187,90.077614 
	C165.930893,72.050644 165.882614,54.023670 165.613739,35.152042 
z"/>
<path fill="#E11937" opacity="1.000000" stroke="none" 
	d="
M119.993027,35.164391 
	C124.357651,35.116650 128.722275,35.068905 133.763458,35.408829 
	C137.891953,36.601967 141.343903,37.407440 144.671219,38.183830 
	C144.671219,42.974346 144.671219,47.350746 144.671219,51.000954 
	C138.017410,49.642307 131.597595,47.672504 125.064407,47.166420 
	C117.133194,46.552036 109.609749,53.780006 109.006760,61.400585 
	C108.195030,71.659256 114.393929,77.863800 122.525047,79.829201 
	C131.858704,82.085266 133.647949,80.153015 132.831177,70.918274 
	C132.808029,70.656784 132.428741,70.426796 131.898331,69.818146 
	C129.609634,69.818146 127.004814,69.818146 124.336258,69.818146 
	C124.336258,66.063599 124.336258,62.684692 124.336258,59.389755 
	C131.389557,59.389755 138.100662,59.389755 144.998123,59.389755 
	C144.998123,68.253677 145.140518,76.734024 144.850876,85.199585 
	C144.805298,86.531898 143.046860,88.437973 141.657227,88.966866 
	C138.238464,90.268036 134.573242,90.921638 131.007126,91.835663 
	C127.968979,91.883308 124.930824,91.930946 121.224556,91.590591 
	C101.207764,89.777817 88.121269,66.382492 99.717026,48.564594 
	C104.630661,41.014351 111.839264,37.515175 119.993027,35.164391 
z"/>
<path fill="#000000" opacity="1.000000" stroke="none" 
	d="
M119.528816,35.088074 
	C111.839264,37.515175 104.630661,41.014351 99.717026,48.564594 
	C88.121269,66.382492 101.207764,89.777817 120.774323,91.519234 
	C106.971855,91.886696 92.951500,91.937515 78.688675,91.594528 
	C82.057526,90.242149 85.711510,89.413078 89.254120,88.245956 
	C90.314583,87.896576 91.773209,86.650162 91.834206,85.733833 
	C92.111748,81.564529 91.955864,77.366379 91.955864,73.291939 
	C87.251701,75.534943 83.316635,77.871117 79.078598,79.322739 
	C72.931610,81.428207 67.246864,79.379936 62.796768,75.119743 
	C58.580616,71.083511 55.993244,66.246094 57.869095,59.751492 
	C61.121281,48.491676 72.293266,44.087925 82.984718,48.522991 
	C85.938667,49.748352 88.764206,51.283268 91.795059,52.746845 
	C91.902725,51.886497 91.973907,51.557934 91.980797,51.228031 
	C92.239075,38.856941 92.238274,38.856926 81.005127,35.165138 
	C93.691620,35.114010 106.378113,35.062881 119.528816,35.088074 
z"/>
<path fill="#E11937" opacity="1.000000" stroke="none" 
	d="
M80.546265,35.093018 
	C92.238274,38.856926 92.239075,38.856941 91.980797,51.228031 
	C91.973907,51.557934 91.902725,51.886497 91.795059,52.746845 
	C88.764206,51.283268 85.938667,49.748352 82.984718,48.522991 
	C72.293266,44.087925 61.121281,48.491676 57.869095,59.751492 
	C55.993244,66.246094 58.580616,71.083511 62.796768,75.119743 
	C67.246864,79.379936 72.931610,81.428207 79.078598,79.322739 
	C83.316635,77.871117 87.251701,75.534943 91.955864,73.291939 
	C91.955864,77.366379 92.111748,81.564529 91.834206,85.733833 
	C91.773209,86.650162 90.314583,87.896576 89.254120,88.245956 
	C85.711510,89.413078 82.057526,90.242149 78.225945,91.517876 
	C75.299278,91.882881 72.592880,91.930733 69.231285,91.595459 
	C55.792141,88.918938 47.936382,81.207703 44.164406,69.006935 
	C44.116703,65.306465 44.069000,61.605995 44.398796,57.252644 
	C45.843842,53.912121 46.659340,51.088070 48.026234,48.562435 
	C52.110390,41.016071 59.535500,38.029957 66.993164,35.164433 
	C71.357910,35.116585 75.722656,35.068737 80.546265,35.093018 
z"/>
<path fill="#000000" opacity="1.000000" stroke="none" 
	d="
M131.471344,91.911957 
	C134.573242,90.921638 138.238464,90.268036 141.657227,88.966866 
	C143.046860,88.437973 144.805298,86.531898 144.850876,85.199585 
	C145.140518,76.734024 144.998123,68.253677 144.998123,59.389755 
	C138.100662,59.389755 131.389557,59.389755 124.336258,59.389755 
	C124.336258,62.684692 124.336258,66.063599 124.336258,69.818146 
	C127.004814,69.818146 129.609634,69.818146 131.898331,69.818146 
	C132.428741,70.426796 132.808029,70.656784 132.831177,70.918274 
	C133.647949,80.153015 131.858704,82.085266 122.525047,79.829201 
	C114.393929,77.863800 108.195030,71.659256 109.006760,61.400585 
	C109.609749,53.780006 117.133194,46.552036 125.064407,47.166420 
	C131.597595,47.672504 138.017410,49.642307 144.671219,51.000954 
	C144.671219,47.350746 144.671219,42.974346 144.671219,38.183830 
	C141.343903,37.407440 137.891953,36.601967 134.223862,35.480316 
	C144.543060,35.160110 155.078400,35.156078 165.269394,35.575302 
	C161.014999,35.998566 157.104935,35.998566 153.248352,35.998566 
	C153.248352,54.692593 153.248352,72.606873 153.248352,91.003288 
	C157.599457,91.003288 161.716888,91.003288 165.834320,91.003281 
	C164.409821,91.335518 162.987549,91.943924 161.560440,91.955544 
	C151.686035,92.036003 141.810638,91.992165 131.471344,91.911957 
z"/>
<path fill="#E11937" opacity="1.000000" stroke="none" 
	d="
M165.906754,90.540451 
	C161.716888,91.003288 157.599457,91.003288 153.248352,91.003288 
	C153.248352,72.606873 153.248352,54.692593 153.248352,35.998566 
	C157.104935,35.998566 161.014999,35.998566 165.379684,35.997635 
	C165.882614,54.023670 165.930893,72.050644 165.906754,90.540451 
z"/>
<path fill="#000000" opacity="1.000000" stroke="none" 
	d="
M44.088081,69.471130 
	C47.936382,81.207703 55.792141,88.918938 68.784210,91.524078 
	C60.788677,91.835838 52.585030,91.835838 44.011757,91.835838 
	C44.011757,84.377556 44.011757,77.156441 44.088081,69.471130 
z"/>
<path fill="#000000" opacity="1.000000" stroke="none" 
	d="
M66.528961,35.088097 
	C59.535500,38.029957 52.110390,41.016071 48.026234,48.562435 
	C46.659340,51.088070 45.843842,53.912121 44.470253,56.796120 
	C44.164215,49.903603 44.164215,42.814724 44.164215,35.011761 
	C51.385281,35.011761 58.725021,35.011761 66.528961,35.088097 
z"/>
</svg>